<?xml version="1.0" encoding="UTF-8" standalone="no"?>
<!DOCTYPE svg PUBLIC "-//W3C//DTD SVG 1.1//EN" "http://www.w3.org/Graphics/SVG/1.1/DTD/svg11.dtd">
<svg width="100%" height="100%" viewBox="0 0 572 572" version="1.1" xmlns="http://www.w3.org/2000/svg" xmlns:xlink="http://www.w3.org/1999/xlink" xml:space="preserve" xmlns:serif="http://www.serif.com/" style="fill-rule:evenodd;clip-rule:evenodd;stroke-linejoin:round;stroke-miterlimit:2;">
    <path d="M519,145L448.5,144.5L448,107L372.5,107.5L372,145L200,145L199.5,107.5L134,107L133.5,144.5L53,145L53,415L519,415L519,145ZM84,385C84,385 83.8,174.6 84.5,174.4C85.1,174.2 488,174.5 488,174.5L488,384.5L84,385ZM430,214L404,214L404,246L370.9,246L371.5,272L404,272L404,304L430,304L430,272L462,272L462,246L430,246L430,214ZM204,246L113,246L113,272L204,272L204,246Z" style="fill-rule:nonzero;"/>
</svg>
